<svg xmlns="http://www.w3.org/2000/svg" xmlns:xlink="http://www.w3.org/1999/xlink" width="316.0513" height="145.3489" viewBox="0 0 83.6219 38.4569">
  <defs>
    <linearGradient id="a">
      <stop offset="0" stop-color="#b3b3b3"/>
      <stop offset="1" stop-color="#b3b3b3" stop-opacity="0"/>
    </linearGradient>
    <linearGradient xlink:href="#a" id="b" x1="359.5226" y1="316.7448" x2="367.6214" y2="316.7448" gradientUnits="userSpaceOnUse" gradientTransform="translate(-13.4998 -62.1837) scale(.26458)"/>
  </defs>
  <g>
    <g>
      <g>
        <path d="M74.9062 2.1922l-.6047 14.0363s-1.9052.285-2.7378.708-1.6128 1.1532-2.1456 1.7606c-.5328.6074-.8076 1.1843-1.0945 1.7596-.2869.5753-.6434 1.665-.6434 1.665l-.048.9777L53.325 21.835l14.2885 2.695.1834 1.3296-17.2382-2.2108-15.754-1.5146-23.2989-1.8645-.0801.6222c12.9421 1.2563 27.0594 2.5501 30.1325 2.9208 2.4108.3856 7.181 1.4417 7.181 1.4417-.4284.4148-.669.5757-.9323.9256-.342.4546-.6256.9623-.82 1.497-.1828.5023-.3143 1.038-.3132 1.5725.001.4855.124.9713.2904 1.4273.242.6632.5431 1.3333 1.0139 1.8594.4801.5365 1.1144.9408 1.7704 1.2376.6419.2904 1.3507.448 2.0531.5018.5697.0436 1.1574.0054 1.7074-.1488.5055-.1418.9897-.3864 1.4113-.6992.366-.2716.6934-.611.9359-.9969.2807-.4467.4386-.9657.5694-1.4769.2182-1.17.4588-2.1102.3023-3.143-.0385-.1467-.246-.3829-.246-.3829l.4796-.649 3.7802.8945 2.5941.6754v5.7196h-.2816v-.741h-1.3643v2.7072h1.2976v-.588h1.696v.602h1.2361V33.352h-1.3353v.6982h-.2837v-1.3886l3.1647-3.2375.1777.0465.5788.5008 1.3715 1.0769 1.1338.2506h3.791v2.684h-1.0775v2.3994h1.0067v-.495h.8118v.476h1.0361V33.984h-.958v-2.685h3.409l1.1338-.2507 1.3715-1.077.5788-.5007.2279-.0594 1.5637 1.5999v-.692l-1.0154-1.0505 1.0154-.2646v-3.3941l-1.9456.2496.1891-1.3726 1.7565-.3312v-1.2335l-1.7818.1576-.047-.9581s-.3564-1.0897-.6434-1.665c-.287-.5753-.5622-1.1522-1.095-1.7596-.5328-.6074-1.3676-1.3656-2.1451-1.7606-.7775-.395-2.3792-.615-2.3792-.615zM64.3006 28.6004l2.6164.681-2.6164 2.7069zm19.3156 4.7516v2.6965h.0057V33.352z" fill="url(#b)"/>
        <path d="M74.7796 20.3673l-3.361.033-.2874 1.4821.9514-.3984 2.697-.0083 2.697.0083.9513.3984-.2868-1.482z" fill="#333"/>
        <path d="M11.7871 20.5457l-.3795-11.5211-.2477 11.5114z" fill="#b3b3b3"/>
        <circle cx="51.6974" cy="29.4297" r="3.6601" fill="#333"/>
        <path d="M10.7782 3.5242V38.457" fill="#fff" stroke="#fff" stroke-width=".265" stroke-dasharray="1.59,.265"/>
        <text fill="#fff" style="line-height:1.25" x="11.7943" y="4.8641" font-weight="400" font-size="2.1167" font-family="sans-serif" letter-spacing="0" word-spacing="0" stroke-width=".2646">
          <tspan y="4.8641" x="11.7943"><tspan x="11.7943" y="4.8641">Common wingspan in airports</tspan></tspan><tspan y="7.51" x="11.7943">65 meters</tspan>
        </text>
        <path d="M11.5063 20.2696L.0168 19.3358l11.4086 1.556z" fill="none" stroke="#fff" stroke-width=".265" stroke-dasharray=".26499999,.52999996999999999"/>
        <path d="M3.7734 18.9576c.8596-3.9715 3.3781-5.0882 6.5062-5.156l-1.1346-.6241" fill="none" stroke="#fff" stroke-width=".2646"/>
        <path d="M10.1711 13.7925l-.9145.7152" fill="none" stroke="#fff" stroke-width=".2646"/>
      </g>
    </g>
  </g>
</svg>