<svg xmlns="http://www.w3.org/2000/svg" width="482.2746" height="502.9655" viewBox="0 0 127.6018 133.0763">
  <g>
    <g>
      <rect transform="rotate(30)" ry="12.4206" y="-26.535" x="36.8892" height="99.4998" width="99.4998" fill="#18193c"/>
      <g transform="rotate(30 137.9623 -321.5964)" fill="#1d1f4f">
        <circle cx="252.4916" cy="70.8343" r="2.9415"/>
        <circle r="2.9415" cy="70.8343" cx="265.1668"/>
        <circle r="2.9415" cy="70.8343" cx="278.8206"/>
        <circle cx="291.4958" cy="70.8343" r="2.9415"/>
        <circle r="2.9415" cy="84.5289" cx="252.4916"/>
        <circle cx="265.1668" cy="84.5289" r="2.9415"/>
        <circle cx="278.8206" cy="84.5289" r="2.9415"/>
        <circle r="2.9415" cy="84.5289" cx="291.4958"/>
        <circle r="2.9415" cy="97.6806" cx="252.4916"/>
        <circle cx="265.1668" cy="97.6806" r="2.9415"/>
        <circle cx="278.8206" cy="97.6806" r="2.9415"/>
        <circle r="2.9415" cy="97.6806" cx="291.4958"/>
        <circle cx="252.4916" cy="111.3752" r="2.9415"/>
        <circle r="2.9415" cy="111.3752" cx="265.1668"/>
        <circle r="2.9415" cy="111.3752" cx="278.8206"/>
        <circle cx="291.4958" cy="111.3752" r="2.9415"/>
      </g>
      <rect width="76.7745" height="76.7745" x="55.1074" y="-33.7766" ry="9.5838" transform="rotate(30)" fill="#1a1c49"/>
    </g>
  </g>
</svg>